<svg width="40" height="40" viewBox="0 0 40 40" fill="none" xmlns="http://www.w3.org/2000/svg">
<circle cx="20" cy="20" r="20" fill="#CCA0A0"/>
<path d="M6.15332 23.9609C6.13509 24.3757 5.63151 24.6286 4.64258 24.7197C4.60612 24.7926 4.60612 24.8997 4.64258 25.041C5.50391 25.0137 6.11458 25 6.47461 25C7.04427 25 7.69368 25.0137 8.42285 25.041C8.45931 24.8997 8.45931 24.7926 8.42285 24.7197C7.4248 24.6286 6.92122 24.3757 6.91211 23.9609C6.86654 22.5436 6.84375 21.3086 6.84375 20.2559C6.84375 18.8158 6.86198 17.542 6.89844 16.4346H6.9668L10.3027 24.8291H10.3711L13.4883 16.5986H13.5498C13.5954 17.9704 13.6182 19.1895 13.6182 20.2559C13.6182 21.737 13.5954 23.0016 13.5498 24.0498C13.5407 24.1683 13.486 24.2708 13.3857 24.3574C13.29 24.4395 13.1465 24.5055 12.9551 24.5557C12.7637 24.6012 12.6019 24.6331 12.4697 24.6514C12.3376 24.6696 12.1689 24.6878 11.9639 24.7061C11.9274 24.779 11.9274 24.8861 11.9639 25.0273C12.7386 25 13.5316 24.9863 14.3428 24.9863C15.3135 24.9863 16.2477 25 17.1455 25.0273C17.182 24.9453 17.182 24.8382 17.1455 24.7061C15.6325 24.6149 14.8714 24.4007 14.8623 24.0635C14.8076 22.6325 14.7803 21.1947 14.7803 19.75C14.7803 18.3509 14.7985 17.0771 14.835 15.9287C14.8441 15.5915 15.6051 15.3773 17.1182 15.2861C17.1546 15.154 17.1546 15.0469 17.1182 14.9648C16.2204 14.9922 15.0264 15.0059 13.5361 15.0059L10.624 22.6074L7.82129 15.0059C6.70931 15.0059 5.72493 14.9876 4.86816 14.9512C4.82259 15.0423 4.82259 15.1289 4.86816 15.2109C5.41048 15.2884 5.76367 15.4023 5.92773 15.5527C6.09635 15.6986 6.18522 16.0381 6.19434 16.5713C6.22624 17.6924 6.24219 18.752 6.24219 19.75C6.24219 21.1309 6.21257 22.5345 6.15332 23.9609ZM5.87305 23.9609C5.93229 22.5254 5.96191 21.1217 5.96191 19.75C5.96191 18.752 5.94596 17.6924 5.91406 16.5713C5.90495 16.152 5.82292 15.8831 5.66797 15.7646C5.51758 15.6416 5.18945 15.5459 4.68359 15.4775C4.55599 15.1995 4.56055 14.9261 4.69727 14.6572C5.74544 14.7028 7.10807 14.7256 8.78516 14.7256L11.0273 20.7139L13.3379 14.7256C14.5592 14.7256 15.9082 14.7074 17.3848 14.6709C17.4759 14.9671 17.485 15.2611 17.4121 15.5527C16.4049 15.653 15.8968 15.7874 15.8877 15.9561C15.8467 16.8128 15.8262 18.0775 15.8262 19.75C15.8262 21.4772 15.8558 22.9059 15.915 24.0361C15.9242 24.2048 16.4323 24.3392 17.4395 24.4395C17.5124 24.7311 17.5033 25.0251 17.4121 25.3213C15.9355 25.2848 15.0765 25.2666 14.835 25.2666C14.4704 25.2666 13.4495 25.2848 11.7725 25.3213C11.6585 25.0023 11.6585 24.7083 11.7725 24.4395C12.7614 24.3392 13.2604 24.2093 13.2695 24.0498C13.3151 22.9834 13.3379 21.7188 13.3379 20.2559C13.3379 19.1165 13.3333 18.2803 13.3242 17.7471L10.5625 25.1094H10.1045L7.12402 17.5967V20.2559C7.12402 21.3086 7.14681 22.5436 7.19238 23.9609C7.2015 24.207 7.70052 24.3711 8.68945 24.4531C8.80339 24.7266 8.80339 25.0205 8.68945 25.335C7.32682 25.2803 5.91178 25.2803 4.44434 25.335C4.33496 25.0205 4.33496 24.7266 4.44434 24.4531C5.3877 24.362 5.86393 24.1979 5.87305 23.9609ZM22.5391 20.126L19.7158 23.9609C19.3968 24.403 18.8727 24.6559 18.1436 24.7197C18.1071 24.7926 18.1071 24.8997 18.1436 25.041C18.6676 25.0137 19.2327 25 19.8389 25C20.363 25 20.9189 25.0137 21.5068 25.041C21.5433 24.9681 21.5433 24.861 21.5068 24.7197C20.8688 24.6468 20.4997 24.526 20.3994 24.3574C20.3356 24.2435 20.3538 24.1068 20.4541 23.9473L22.8604 20.6455L24.9453 23.9609C25.0046 24.0475 25.0365 24.1273 25.041 24.2002C25.0456 24.2686 25.0068 24.3415 24.9248 24.4189C24.8473 24.4919 24.7288 24.5488 24.5693 24.5898C24.4098 24.6309 24.2891 24.6582 24.207 24.6719C24.125 24.6855 24.0225 24.6969 23.8994 24.7061C23.7764 24.7152 23.6875 24.722 23.6328 24.7266C23.5781 24.7311 23.512 24.7334 23.4346 24.7334C23.3981 24.8063 23.3981 24.9134 23.4346 25.0547C24.1182 25.0182 24.9111 25 25.8135 25C26.5973 25 27.5885 25.0182 28.7871 25.0547C28.8236 24.9727 28.8236 24.8656 28.7871 24.7334C27.5612 24.6514 26.7523 24.3939 26.3604 23.9609L23.6191 19.5928L26.1826 16.0244C26.4788 15.596 27.0007 15.3454 27.748 15.2725C27.7936 15.1676 27.7936 15.0605 27.748 14.9512C27.224 14.9785 26.6589 14.9922 26.0527 14.9922C25.5788 14.9922 25.0479 14.9785 24.46 14.9512C24.4235 15.0241 24.4235 15.1312 24.46 15.2725C25.1755 15.3636 25.54 15.5299 25.5537 15.7715C25.5537 15.849 25.5241 15.9333 25.4648 16.0244L23.2979 19.0801L21.4795 16.1953C21.4202 16.0723 21.3861 15.9674 21.377 15.8809C21.3678 15.7897 21.4111 15.71 21.5068 15.6416C21.6071 15.5732 21.7142 15.5186 21.8281 15.4775C21.9466 15.432 22.0993 15.3955 22.2861 15.3682C22.473 15.3408 22.6507 15.3203 22.8193 15.3066C22.988 15.293 23.1794 15.2816 23.3936 15.2725C23.43 15.195 23.43 15.0879 23.3936 14.9512C22.5732 14.9876 21.7096 15.0059 20.8027 15.0059C20.1784 15.0059 19.3535 14.9876 18.3281 14.9512C18.2917 15.0332 18.2917 15.1403 18.3281 15.2725C18.5879 15.2998 18.7884 15.3249 18.9297 15.3477C19.071 15.3704 19.2373 15.432 19.4287 15.5322C19.6201 15.6279 19.7796 15.7601 19.9072 15.9287L22.5391 20.126ZM19.4902 23.7969L22.2041 20.1123L19.668 16.0791L19.6816 16.0928C19.5814 15.9561 19.4355 15.8467 19.2441 15.7646C19.0527 15.6781 18.8841 15.6257 18.7383 15.6074C18.5924 15.5892 18.3805 15.5664 18.1025 15.5391C18.0296 15.2474 18.0387 14.9535 18.1299 14.6572C19.93 14.7301 21.778 14.7438 23.6738 14.6982C23.7695 14.9489 23.7695 15.2292 23.6738 15.5391C23.1725 15.5573 22.8239 15.6029 22.6279 15.6758C22.432 15.7487 22.3841 15.8695 22.4844 16.0381L23.7012 18.0137L25.2256 15.874C25.2666 15.8148 25.2666 15.7646 25.2256 15.7236C25.1891 15.6826 25.1162 15.6484 25.0068 15.6211C24.902 15.5938 24.8086 15.5732 24.7266 15.5596C24.6491 15.5459 24.5465 15.5277 24.4189 15.5049L24.2207 15.4912C24.1478 15.2406 24.1615 14.9626 24.2617 14.6572C25.3646 14.721 26.5928 14.721 27.9463 14.6572C27.9919 14.7575 28.0146 14.9033 28.0146 15.0947C28.0146 15.2861 27.9919 15.4342 27.9463 15.5391C27.1807 15.6029 26.6657 15.8216 26.4014 16.1953L24.3779 19.0391L27.3721 23.8105C27.5954 24.166 28.165 24.3848 29.0811 24.4668C29.154 24.7585 29.1449 25.0524 29.0537 25.3486C26.9528 25.2666 25.0114 25.2529 23.2295 25.3076C23.1247 25.0387 23.1247 24.7585 23.2295 24.4668C23.9723 24.4395 24.4189 24.3984 24.5693 24.3438C24.7288 24.2845 24.7767 24.2093 24.7129 24.1182L22.8193 21.165L20.6797 24.1182C20.625 24.1911 20.6273 24.2549 20.6865 24.3096C20.7458 24.3597 20.8483 24.3962 20.9941 24.4189C21.14 24.4417 21.2676 24.4577 21.377 24.4668C21.4909 24.4759 21.6117 24.485 21.7393 24.4941C21.8167 24.7493 21.8031 25.0296 21.6982 25.335C20.2992 25.2712 19.0482 25.2712 17.9453 25.335C17.8359 25.0205 17.8359 24.7266 17.9453 24.4531C18.6927 24.3893 19.2077 24.1706 19.4902 23.7969ZM28.9238 27.9395L29.0947 28.2061C29.9834 27.8962 30.5872 27.6592 30.9062 27.4951C31.2253 27.3356 31.5557 27.1556 31.8975 26.9551C32.2438 26.7591 32.556 26.5518 32.834 26.333C33.1895 26.0732 33.529 25.777 33.8525 25.4443C34.1761 25.1117 34.4609 24.7471 34.707 24.3506C34.9577 23.9495 35.1559 23.5212 35.3018 23.0654C35.4476 22.6051 35.5205 22.1175 35.5205 21.6025C35.5205 21.1559 35.4727 20.764 35.377 20.4268C35.2812 20.0895 35.1514 19.8001 34.9873 19.5586C34.8278 19.3125 34.641 19.1074 34.4268 18.9434C34.2171 18.7793 33.9984 18.6494 33.7705 18.5537C33.5426 18.458 33.3148 18.3919 33.0869 18.3555C32.859 18.3145 32.6471 18.2939 32.4512 18.2939C32.0456 18.2939 31.6514 18.3691 31.2686 18.5195C30.8903 18.6654 30.5531 18.8796 30.2568 19.1621C29.9652 19.4401 29.7305 19.7796 29.5527 20.1807C29.375 20.5817 29.2861 21.0352 29.2861 21.541C29.2861 22.0833 29.3796 22.5459 29.5664 22.9287C29.7578 23.3115 30.0267 23.6237 30.373 23.8652C30.7194 24.1068 31.1364 24.2845 31.624 24.3984C32.1117 24.5124 32.654 24.5693 33.251 24.5693C32.2119 25.9229 30.7695 27.0462 28.9238 27.9395ZM30.6328 21.541C30.6328 20.9896 30.6921 20.5156 30.8105 20.1191C30.9336 19.7227 31.0954 19.431 31.2959 19.2441C31.4964 19.0573 31.6901 18.9274 31.877 18.8545C32.0638 18.7816 32.2598 18.7451 32.4648 18.7451C33.0254 18.7451 33.4629 18.9707 33.7773 19.4219C34.0964 19.873 34.2559 20.5088 34.2559 21.3291C34.2559 22.6462 34.0098 23.5622 33.5176 24.0771C32.4421 24.068 31.6947 23.863 31.2754 23.4619C30.8561 23.0609 30.6419 22.4206 30.6328 21.541ZM29.457 28.5273H28.9648L28.5068 27.8301C30.307 26.9596 31.6969 25.9593 32.6768 24.8291C30.2295 24.6833 29.0059 23.5872 29.0059 21.541C29.0059 20.4518 29.3522 19.5928 30.0449 18.9639C30.7422 18.3304 31.5443 18.0137 32.4512 18.0137C32.9661 18.0137 33.4401 18.0661 33.873 18.1709C34.306 18.2712 34.7298 18.4489 35.1445 18.7041C35.5592 18.9548 35.8851 19.3262 36.1221 19.8184C36.3636 20.306 36.4844 20.8984 36.4844 21.5957C36.4844 22.2793 36.3545 22.9333 36.0947 23.5576C35.8395 24.182 35.5046 24.7197 35.0898 25.1709C34.6751 25.6266 34.2171 26.0482 33.7158 26.4355C33.2191 26.8229 32.7201 27.1488 32.2188 27.4131C31.7174 27.6774 30.7969 28.0488 29.457 28.5273ZM31.5967 21.541C31.6058 22.252 31.7402 22.7829 32 23.1338C32.2643 23.4801 32.7314 23.6921 33.4014 23.7695C33.7842 23.2546 33.9756 22.4411 33.9756 21.3291C33.9756 20.6774 33.8639 20.1533 33.6406 19.7568C33.4173 19.3604 33.1097 19.1257 32.7178 19.0527C31.9704 19.2396 31.5967 20.069 31.5967 21.541Z" fill="black"/>
</svg>
